<svg viewBox="0 0 198.17 201.74" xmlns="http://www.w3.org/2000/svg"><path d="m81.18 200.69h6.67v-30h-6.67zm-34.84-48.69 7.89 10.63h3.14v-15.9h-3.23v10.44l-7.81-10.44h-3.21v15.9h3.22zm35.82-5.27h-13.47v3.37h5.08v12.53h3.42v-12.58h5zm-20.75 45.73-6.35-21.76h-5.32l-6.32 21.68-5.77-21.68h-6.53l8.49 30h7.2l5.59-19.75 5.6 19.74h7.2l8.53-30h-6.53zm45.14-65.18h19.59a32.63 32.63 0 0 0 32.63-32.63v-62a32.63 32.63 0 0 0 -32.63-32.65h-19.69a.83.83 0 0 0 -.83.83v125.52a.93.93 0 0 0 .93.93zm24.25-70.14a12.87 12.87 0 1 1 -12.87 12.86 12.87 12.87 0 0 1 12.87-12.86zm-99.67 89.54h-3.54v15.9h3.54zm-26.56 5.32 7.9 10.63h3.14v-15.9h-3.23v10.44l-7.82-10.49h-3.21v15.9h3.22zm9.43 30.51h-.18c-3.67-.65-6.83-1.2-7.12-3.35a2.11 2.11 0 0 1 .55-1.67c1-1.16 3.28-1.74 6.74-1.74a25.82 25.82 0 0 1 9.17 2.06l2.13-5.19a33.56 33.56 0 0 0 -11.61-2.31c-6.48 0-13.37 3.16-13.37 9 0 4.75 3.35 7.17 12 8.65 6.06 1 9.4 1.62 9.31 4.23-.06 1.43-1.17 3.84-8 3.84a21.19 21.19 0 0 1 -10.71-2.8l-2.91 5.11a29.31 29.31 0 0 0 13.12 3.18c9.54 0 14.58-3.31 14.58-9.56 0-4.46-2.24-7.43-13.7-9.45zm37.31-144.33a12 12 0 1 0 12-12 12 12 0 0 0 -12 12zm54.84 121.45h-9.15v-3.73h8.44v-2.9h-8.44v-3.4h9.13v-2.92h-12.34v15.89h12.36zm74.37-13.48a8.48 8.48 0 1 0 8.46 8.48 8.48 8.48 0 0 0 -8.46-8.48zm0 13.43a5 5 0 1 1 4.93-5 4.95 4.95 0 0 1 -4.93 5zm1.08 22.94h-14v-11.82h-6.2v30h6.2v-12h14v12h6.21v-30h-6.21zm8.71 15.07h1.26v3.1h.74v-3.1h1.23v-.73h-3.23zm6.8-.78-1 2.81-1-2.81h-1.07v3.84h.69v-2.94l1 2.91h.66l1-2.91v2.94h.68v-3.84zm-55.69-20.42a9.61 9.61 0 0 1 8.23 4.66l4.88-4.24a16 16 0 1 0 0 17.85l-4.88-4.25a9.61 9.61 0 0 1 -8.23 4.66 9.34 9.34 0 1 1 0-18.68zm-46.25.68h9.58v23.62h6.45v-23.62h9.37v-6.37h-25.4zm38.41-14.49v-15.9h-3.23v10.44l-7.81-10.44h-3.21v15.9h3.22v-10.58l7.89 10.63zm-41.58-162.58h-27.87a32.64 32.64 0 0 0 -32.64 32.64v62a32.63 32.63 0 0 0 32.64 32.63h27.87a.93.93 0 0 0 .93-.93v-125.41a.93.93 0 0 0 -.93-.93zm-9.38 117h-18.49a22.38 22.38 0 0 1 -22.38-22.35v-62a22.4 22.4 0 0 1 22.38-22.39h18.49zm71 29.66h-6.62v15.9h6.57a8 8 0 1 0 0-15.9zm.16 12.56h-3.47v-9.22h3.47a4.61 4.61 0 1 1 0 9.22z" fill="#fff"/></svg>